<svg width="40" height="40" viewBox="0 0 40 40" fill="none" xmlns="http://www.w3.org/2000/svg">
<path d="M19.9996 40.0008C30.9218 40.0008 40 30.9226 40 20.0004C40 9.05901 30.9017 0 19.9795 0C9.03892 0 0 9.05901 0 20.0004C0 30.9226 9.05817 40.0008 19.9996 40.0008ZM12.8238 29.6677C10.6277 29.6677 9.52919 28.5884 9.52919 26.4123V13.5684C9.52919 11.3924 10.6277 10.3139 12.8238 10.3139H27.177C29.3732 10.3139 30.4716 11.3924 30.4716 13.5684V26.4123C30.4716 28.5892 29.3732 29.6668 27.177 29.6668L12.8238 29.6677ZM12.6866 27.8831H27.2749C28.1969 27.8831 28.667 27.4314 28.667 26.5111V16.5887C28.667 15.6081 28.1375 15.1179 27.1963 15.1179H12.7644C11.8433 15.1179 11.3338 15.6081 11.3338 16.5887V26.5111C11.3338 27.4314 11.7847 27.8831 12.6866 27.8831ZM17.8821 19.0592C17.432 19.0592 17.2939 18.922 17.2939 18.4903V17.7457C17.2939 17.2939 17.432 17.1576 17.8829 17.1576H18.6083C19.0592 17.1576 19.1964 17.2948 19.1964 17.7457V18.4903C19.1964 18.922 19.0592 19.0592 18.6083 19.0592H17.8821ZM21.3926 19.0592C20.9215 19.0592 20.7843 18.922 20.7843 18.4903V17.7457C20.7843 17.2939 20.9215 17.1576 21.3926 17.1576H22.1179C22.5697 17.1576 22.7061 17.2948 22.7061 17.7457V18.4903C22.7061 18.922 22.5689 19.0592 22.1179 19.0592H21.3926ZM24.8629 19.0592C24.412 19.0592 24.2555 18.922 24.2555 18.4903V17.7457C24.2555 17.2939 24.412 17.1576 24.8629 17.1576H25.5891C26.04 17.1576 26.1965 17.2948 26.1965 17.7457V18.4903C26.1965 18.922 26.04 19.0592 25.5891 19.0592H24.8629ZM14.3925 22.4911C13.9407 22.4911 13.8044 22.353 13.8044 21.9222V21.1776C13.8044 20.7258 13.9416 20.5886 14.3925 20.5886H15.1179C15.5688 20.5886 15.7253 20.7258 15.7253 21.1767V21.9213C15.7253 22.3539 15.5688 22.4902 15.1179 22.4902L14.3925 22.4911ZM17.8829 22.4911C17.4311 22.4911 17.2939 22.353 17.2939 21.9222V21.1776C17.2939 20.7258 17.432 20.5886 17.8829 20.5886H18.6083C19.0592 20.5886 19.1964 20.7258 19.1964 21.1767V21.9213C19.1964 22.3539 19.0592 22.4902 18.6083 22.4902L17.8829 22.4911ZM21.3926 22.4911C20.9215 22.4911 20.7843 22.353 20.7843 21.9222V21.1776C20.7843 20.7258 20.9215 20.5886 21.3926 20.5886H22.1179C22.5697 20.5886 22.7061 20.7258 22.7061 21.1767V21.9213C22.7061 22.3539 22.5689 22.4902 22.1179 22.4902L21.3926 22.4911ZM24.8629 22.4911C24.412 22.4911 24.2555 22.353 24.2555 21.9222V21.1776C24.2555 20.7258 24.412 20.5886 24.8629 20.5886H25.5891C26.04 20.5886 26.1965 20.7258 26.1965 21.1767V21.9213C26.1965 22.3539 26.04 22.4902 25.5891 22.4902L24.8629 22.4911ZM14.3925 25.9422C13.9407 25.9422 13.8044 25.7849 13.8044 25.3339V24.6086C13.8044 24.1568 13.9416 24.0397 14.3925 24.0397H15.1179C15.5688 24.0397 15.7253 24.1568 15.7253 24.6086V25.3339C15.7253 25.7849 15.5688 25.9422 15.1179 25.9422H14.3925ZM17.8829 25.9422C17.4311 25.9422 17.2939 25.7849 17.2939 25.3339V24.6086C17.2939 24.1568 17.432 24.0397 17.8829 24.0397H18.6083C19.0592 24.0397 19.1964 24.1568 19.1964 24.6086V25.3339C19.1964 25.7849 19.0592 25.9422 18.6083 25.9422H17.8829ZM21.3926 25.9422C20.9215 25.9422 20.7843 25.7849 20.7843 25.3339V24.6086C20.7843 24.1568 20.9215 24.0397 21.3926 24.0397H22.1179C22.5697 24.0397 22.7061 24.1568 22.7061 24.6086V25.3339C22.7061 25.7849 22.5689 25.9422 22.1179 25.9422H21.3926Z" fill="#254900"/>
</svg>
