<svg width="30" height="30" viewBox="0 0 30 30" fill="none" xmlns="http://www.w3.org/2000/svg">
<circle cx="14.5378" cy="14.5378" r="14.5378" fill="#688840"/>
<g clip-path="url(#clip0_111_1274)">
<path d="M12.9336 13.464C12.9336 13.0386 13.1026 12.6306 13.4034 12.3297C13.7043 12.0289 14.1123 11.8599 14.5378 11.8599C14.9632 11.8599 15.3712 12.0289 15.6721 12.3297C15.9729 12.6306 16.1419 13.0386 16.1419 13.464C16.1419 13.8895 15.9729 14.2975 15.6721 14.5984C15.3712 14.8992 14.9632 15.0682 14.5378 15.0682C14.1123 15.0682 13.7043 14.8992 13.4034 14.5984C13.1026 14.2975 12.9336 13.8895 12.9336 13.464Z" fill="white"/>
<path fill-rule="evenodd" clip-rule="evenodd" d="M7.58643 13.4642C7.58728 11.6213 8.32007 9.85407 9.62365 8.55129C10.9272 7.24851 12.6949 6.51681 14.5378 6.51709C18.3761 6.51709 21.4893 9.62812 21.4893 13.4642C21.4893 16.3239 20.0583 18.5901 18.5247 20.1215C17.8468 20.8024 17.0871 21.3966 16.2629 21.8904C15.9185 22.0936 15.5966 22.254 15.3164 22.3631C15.0522 22.4679 14.7753 22.5492 14.5378 22.5492C14.3004 22.5492 14.0234 22.4679 13.7593 22.3631C13.4322 22.23 13.1157 22.072 12.8128 21.8904C11.9886 21.3965 11.2289 20.8024 10.5509 20.1215C9.01735 18.5901 7.58643 16.3239 7.58643 13.4642ZM14.5378 10.7917C13.8288 10.7917 13.1487 11.0734 12.6473 11.5748C12.1459 12.0762 11.8642 12.7562 11.8642 13.4653C11.8642 14.1744 12.1459 14.8544 12.6473 15.3558C13.1487 15.8572 13.8288 16.1389 14.5378 16.1389C15.2469 16.1389 15.927 15.8572 16.4284 15.3558C16.9298 14.8544 17.2115 14.1744 17.2115 13.4653C17.2115 12.7562 16.9298 12.0762 16.4284 11.5748C15.927 11.0734 15.2469 10.7917 14.5378 10.7917Z" fill="white"/>
</g>
<defs>
<clipPath id="clip0_111_1274">
<rect width="16.0417" height="16.0417" fill="white" transform="translate(6.51709 6.51709)"/>
</clipPath>
</defs>
</svg>
