<svg width="40" height="40" viewBox="0 0 40 40" fill="none" xmlns="http://www.w3.org/2000/svg">
<g clip-path="url(#clip0_479_940)">
<mask id="mask0_479_940" style="mask-type:luminance" maskUnits="userSpaceOnUse" x="0" y="0" width="40" height="40">
<path d="M0 0H40V40H0V0Z" fill="white"/>
<path fill-rule="evenodd" clip-rule="evenodd" d="M13.0768 17.6923C13.6829 17.6923 14.2831 17.5729 14.843 17.341C15.403 17.109 15.9118 16.7691 16.3404 16.3405C16.769 15.9119 17.1089 15.4031 17.3409 14.8432C17.5728 14.2832 17.6922 13.683 17.6922 13.0769C17.6922 12.4708 17.5728 11.8707 17.3409 11.3107C17.1089 10.7507 16.769 10.2419 16.3404 9.81336C15.9118 9.38478 15.403 9.04481 14.843 8.81287C14.2831 8.58092 13.6829 8.46154 13.0768 8.46154C11.8527 8.46154 10.6788 8.9478 9.81324 9.81336C8.94769 10.6789 8.46143 11.8528 8.46143 13.0769C8.46143 14.301 8.94769 15.4749 9.81324 16.3405C10.6788 17.206 11.8527 17.6923 13.0768 17.6923ZM13.0768 10C13.8929 10 14.6755 10.3242 15.2525 10.9012C15.8296 11.4782 16.1537 12.2609 16.1537 13.0769C16.1537 13.893 15.8296 14.6756 15.2525 15.2526C14.6755 15.8297 13.8929 16.1538 13.0768 16.1538C12.2608 16.1538 11.4781 15.8297 10.9011 15.2526C10.3241 14.6756 9.99989 13.893 9.99989 13.0769C9.99989 12.2609 10.3241 11.4782 10.9011 10.9012C11.4781 10.3242 12.2608 10 13.0768 10ZM13.0768 33.0769C14.3009 33.0769 15.4748 32.5907 16.3404 31.7251C17.2059 30.8596 17.6922 29.6856 17.6922 28.4615C17.6922 27.2375 17.2059 26.0635 16.3404 25.198C15.4748 24.3324 14.3009 23.8462 13.0768 23.8462C11.8527 23.8462 10.6788 24.3324 9.81324 25.198C8.94769 26.0635 8.46143 27.2375 8.46143 28.4615C8.46143 29.6856 8.94769 30.8596 9.81324 31.7251C10.6788 32.5907 11.8527 33.0769 13.0768 33.0769ZM13.0768 25.3846C13.8929 25.3846 14.6755 25.7088 15.2525 26.2858C15.8296 26.8629 16.1537 27.6455 16.1537 28.4615C16.1537 29.2776 15.8296 30.0602 15.2525 30.6373C14.6755 31.2143 13.8929 31.5385 13.0768 31.5385C12.2608 31.5385 11.4781 31.2143 10.9011 30.6373C10.3241 30.0602 9.99989 29.2776 9.99989 28.4615C9.99989 27.6455 10.3241 26.8629 10.9011 26.2858C11.4781 25.7088 12.2608 25.3846 13.0768 25.3846Z" fill="black"/>
<path d="M30.7354 28.8954C30.8819 29.0376 30.9659 29.2321 30.9689 29.4363C30.9719 29.6404 30.8937 29.8374 30.7515 29.9839C30.6093 30.1303 30.4148 30.2143 30.2107 30.2174C30.0065 30.2204 29.8096 30.1422 29.6631 30L16.0077 16.7277C15.9341 16.6576 15.8751 16.5735 15.8342 16.4805C15.7932 16.3874 15.7711 16.2872 15.7692 16.1855C15.7672 16.0839 15.7855 15.9828 15.8228 15.8883C15.8601 15.7937 15.9158 15.7075 15.9867 15.6346C16.0576 15.5617 16.1422 15.5035 16.2357 15.4635C16.3291 15.4235 16.4296 15.4025 16.5313 15.4015C16.6329 15.4006 16.7338 15.4199 16.828 15.4581C16.9222 15.4964 17.0078 15.553 17.08 15.6246L30.7354 28.8954Z" fill="black"/>
<path d="M15.6091 24.84C15.4647 24.9845 15.3835 25.1804 15.3835 25.3846C15.3835 25.5889 15.4647 25.7848 15.6091 25.9293C15.7536 26.0737 15.9495 26.1548 16.1537 26.1548C16.358 26.1548 16.5539 26.0737 16.6984 25.9293L30.5445 12.0831C30.689 11.9387 30.7701 11.7428 30.7701 11.5385C30.7701 11.3342 30.689 11.1383 30.5445 10.9939C30.4001 10.8494 30.2042 10.7683 29.9999 10.7683C29.7956 10.7683 29.5997 10.8494 29.4553 10.9939L15.6091 24.84Z" fill="black"/>
</mask>
<g mask="url(#mask0_479_940)">
<path d="M20 40C31.0457 40 40 31.0457 40 20C40 8.9543 31.0457 0 20 0C8.9543 0 0 8.9543 0 20C0 31.0457 8.9543 40 20 40Z" fill="#254900"/>
</g>
</g>
<defs>
<clipPath id="clip0_479_940">
<rect width="40" height="40" fill="white"/>
</clipPath>
</defs>
</svg>
