<svg width="201" height="163" viewBox="0 0 201 163" fill="none" xmlns="http://www.w3.org/2000/svg">
<path d="M221.02 150.113C207.49 142.862 195.627 135.252 183.435 126.023C176.922 121.093 170.25 118.634 163.824 114.405C157.884 110.496 153.072 108.677 149.976 101.858C147.147 95.6265 154.946 78.8415 156.373 72.4809C160.598 53.6369 165.494 34.8941 171.148 16.8549C172.295 13.1944 175.348 -6.02568 171.997 5.41904C170.228 11.4594 170.433 17.451 167.086 23.0282C164.223 27.7978 160.824 32.3401 159.14 37.7108C156.994 44.5588 156.228 51.3665 154.14 58.0276C152.247 64.0677 148.685 68.6044 147.521 75.0254C146.739 79.3333 146.357 88.88 142.355 91.2632C137.797 93.9781 131.388 83.4035 128.117 79.9616C120.359 71.7985 110.105 65.6371 100.875 59.7212C95.1428 56.0473 82.3565 35.4239 75.2829 36.8825C51.9907 41.6857 28.6772 38.6953 6.09165 32.9006C-0.826504 31.1256 1.74427 36.6069 5.68271 40.7509C7.5042 42.6675 18.584 39.008 20.863 38.1383C27.0854 35.7637 35.7699 40.7594 42.3509 39.4023C49.0979 38.0109 56.473 39.2235 63.1737 39.394C77.4832 39.758 82.767 46.0391 93.1957 56.0986C102.857 65.4182 114.681 71.7326 121.574 83.3818C127.878 94.0375 141.169 100.491 149.823 108.649C161.009 119.194 174.145 126.031 182.022 139.258C186.764 147.22 200.023 156.706 208.008 161.08" stroke="#254900" stroke-width="3" stroke-linecap="round"/>
</svg>
