<svg width="110" height="176" viewBox="0 0 110 176" fill="none" xmlns="http://www.w3.org/2000/svg">
<path d="M38.9011 173.784C36.2238 151.052 31.3504 151.911 39.1608 132.476C40.7501 128.521 43.0633 121.441 45.4192 118.11C47.6487 114.958 39.7533 107.354 37.6896 103.326C29.6572 87.6474 21.5838 73.3166 12.7634 58.2501C9.40516 52.5139 -1.03717 35.5602 2.87682 40.9326C7.76023 47.6357 16.5732 51.8411 22.9592 57.1526C34.3359 66.6152 36.7281 79.9442 44.5832 90.847C46.4913 93.4953 48.8625 100.737 48.9276 100.557C51.3576 93.8254 54.1585 85.2642 57.5514 79.0979C63.3349 68.5868 67.1738 57.2795 72.8294 46.6331C76.4391 39.838 80.5582 33.9558 83.5022 26.7911C85.5504 21.8063 90.2022 15.3086 94.2055 11.5917C96.1553 9.7814 107.687 -2.25423 102.555 3.58729C97.9821 8.79362 95.0365 14.4893 92.3196 21.0031C90.1819 26.1281 88.9097 36.7007 85.1213 40.5392C80.4531 45.2692 70.125 63.1218 70.9452 70.0864C71.2899 73.0132 99.9257 67.8937 104.379 70.7953C105.511 71.5334 109.72 71.0955 108.051 71.292C105.064 71.6438 102.076 71.9956 99.0892 72.3475C92.9789 73.0671 86.8686 73.7867 80.7583 74.5063C77.1744 74.9284 67.7423 74.3785 65.3988 77.3477C62.1686 81.4403 61.9606 89.5936 59.8956 94.6192C55.5102 105.292 52.4478 118.398 46.1632 127.934C38.8453 139.039 48.3456 146.944 42.5221 159.014C39.2458 165.806 55.4268 171.322 48.9276 173.784" stroke="#254900" stroke-width="3" stroke-linecap="round"/>
</svg>
