<svg width="201" height="174" viewBox="0 0 201 174" fill="none" xmlns="http://www.w3.org/2000/svg">
<path d="M1.71247 154.466C13.8942 145.126 25.7169 137.453 39.1497 130.147C46.3256 126.244 51.3152 121.178 57.8158 117.066C63.8252 113.264 67.4663 109.629 74.9544 109.618C81.7985 109.608 93.8784 123.631 99.0862 127.551C114.515 139.166 129.575 151.35 143.682 163.935C146.544 166.489 162.799 177.19 153.752 169.421C148.977 165.32 143.433 163.038 139.731 157.69C136.565 153.116 133.827 148.147 129.627 144.4C124.272 139.623 118.384 136.12 113.175 131.472C108.452 127.259 105.786 122.144 100.415 118.437C96.8121 115.95 88.2713 111.668 87.7486 107.04C87.1533 101.767 99.4292 100.285 103.913 98.723C114.548 95.0178 124.387 88.2137 133.581 82.2415C139.29 78.5327 163.35 75.3804 164.936 68.3342C170.157 45.1321 182.488 25.122 197.075 6.93083C201.542 1.35869 195.489 1.44246 190.09 3.32342C187.593 4.19334 186.362 15.7967 186.215 18.2316C185.815 24.8796 177.685 30.7341 176.21 37.2897C174.697 44.0105 170.553 50.2308 167.637 56.266C161.409 69.1541 153.509 71.3804 140.046 76.7374C127.573 81.7005 116.947 89.8723 103.493 91.3519C91.1862 92.7054 79.8292 102.156 68.8298 106.68C54.6127 112.528 42.9704 121.679 27.6729 123.406C18.4643 124.446 4.35754 132.618 -2.91863 138.092" stroke="#E9F1DF" stroke-width="3" stroke-linecap="round"/>
</svg>
