<svg width="164" height="166" viewBox="0 0 164 166" fill="none" xmlns="http://www.w3.org/2000/svg">
<path d="M-47.1228 11.921C-34.2549 20.2907 -23.0781 28.8778 -11.711 39.1054C-5.63861 44.569 0.801347 47.5836 6.84609 52.3408C12.434 56.7384 17.0755 58.9588 19.5828 66.0146C21.8745 72.4636 12.6829 88.5284 10.7234 94.7455C4.91832 113.164 -1.54595 131.426 -8.70628 148.922C-10.1592 152.472 -14.8277 171.365 -10.5198 160.245C-8.24619 154.376 -7.94344 148.388 -4.13592 143.114C-0.879781 138.604 2.89167 134.366 5.02345 129.157C7.74164 122.515 9.08098 115.796 11.725 109.336C14.1225 103.478 18.0556 99.2587 19.7591 92.9592C20.9019 88.7329 22.0912 79.2528 26.28 77.2168C31.0518 74.8973 36.543 85.9763 39.5111 89.6827C46.5506 98.473 56.2464 105.48 64.9426 112.156C70.343 116.301 81.3382 137.933 88.5099 137.078C112.125 134.263 135.102 139.216 157.116 146.901C163.859 149.255 161.761 143.576 158.188 139.113C156.535 137.049 145.185 139.758 142.841 140.432C136.44 142.271 128.209 136.559 121.537 137.354C114.696 138.17 107.45 136.337 100.788 135.6C86.5608 134.027 81.8274 127.321 72.2874 116.415C63.4491 106.311 52.2017 99.0191 46.3201 86.8284C40.9401 75.6775 28.2428 68.1223 20.3098 59.261C10.0562 47.8077 -2.4534 39.8834 -9.18338 26.0376C-13.2346 17.703 -25.6429 7.12878 -33.2297 2.09444" stroke="#254900" stroke-width="3" stroke-linecap="round"/>
</svg>
