<svg width="112" height="206" viewBox="0 0 112 206" fill="none" xmlns="http://www.w3.org/2000/svg">
<path d="M1.50315 8.58413C18.4942 23.9218 13.6931 43.2358 20.622 63.0023C22.032 67.0246 24.9566 73.875 25.3788 77.933C25.7784 81.7732 36.7274 82.2915 40.9338 83.9622C57.3062 90.465 72.8213 95.9269 89.3831 101.45C95.6887 103.553 114.714 109.427 108.23 107.964C100.14 106.139 90.7395 108.782 82.436 108.993C67.6432 109.37 57.0619 100.919 43.9695 97.8919C40.7892 97.1566 34.2342 93.2709 34.3039 93.4492C36.911 100.114 40.4443 108.4 41.9544 115.274C44.5286 126.992 49.0903 138.028 51.8499 149.763C53.6112 157.253 54.3879 164.392 56.8935 171.721C58.6368 176.821 59.4183 184.774 58.8554 190.207C58.5813 192.854 57.8359 209.505 57.8475 201.73C57.8577 194.801 56.3212 188.575 54.0736 181.885C52.3051 176.621 46.2967 167.829 46.6177 162.446C47.0133 155.812 43.0211 135.577 37.8155 130.878C35.6279 128.903 17.4585 151.621 12.1969 152.372C10.8584 152.563 7.98102 155.665 9.107 154.418C11.1225 152.185 13.138 149.952 15.1535 147.719C19.2761 143.152 23.3987 138.585 27.5213 134.018C29.9393 131.339 37.3972 125.539 37.204 121.761C36.9377 116.554 31.7225 110.284 29.965 105.142C26.2325 94.2242 19.9018 82.3473 18.3464 71.0324C16.5353 57.8569 11.5479 45.8555 7.97614 32.938C5.96662 25.6706 -0.793503 8.13488 2.47327 2.00025" stroke="#E9F1DF" stroke-width="3" stroke-linecap="round"/>
</svg>
