<svg width="126" height="180" viewBox="0 0 126 180" fill="none" xmlns="http://www.w3.org/2000/svg">
<path d="M111.5 178.5C95.7507 161.89 92.3607 165.495 86.9868 145.25C85.8933 141.131 83.5092 134.074 83.4032 129.996C83.3028 126.136 72.427 124.769 68.363 122.777C52.5448 115.023 37.5003 108.374 21.4171 101.582C15.2937 98.9962 -3.21828 91.6631 3.13261 93.6248C11.0565 96.0725 20.6338 94.1674 28.9287 94.601C43.7061 95.3734 53.5996 104.62 66.4176 108.654C69.5312 109.634 75.7649 114.017 75.7092 113.833C73.6273 106.986 70.7477 98.451 69.7757 91.4803C68.1186 79.5981 64.4272 68.2419 62.5867 56.3279C61.4121 48.7236 61.1918 41.546 59.2626 34.0441C57.9203 28.8247 57.7584 20.8352 58.7413 15.4616C59.22 12.8444 61.2554 -3.69897 60.6405 4.05178C60.0924 10.9597 61.1412 17.2857 62.8628 24.1302C64.2173 29.5154 69.5253 38.747 68.7875 44.0895C67.8782 50.6727 70.2879 71.1562 75.1131 76.2451C77.1408 78.3836 97.0186 57.1447 102.323 56.8044C103.672 56.7178 106.781 53.8484 105.562 55.0046C103.379 57.0742 101.197 59.1439 99.0138 61.2135C94.5492 65.4468 90.0846 69.68 85.62 73.9133C83.0013 76.3963 75.1158 81.6005 75.0152 85.3818C74.8766 90.5937 79.5894 97.2503 80.9426 102.512C83.8164 113.687 89.2063 126.02 89.8788 137.421C90.6619 150.697 103.003 151.344 105.562 164.5C107.001 171.901 127.733 170.343 124 176.205" stroke="#254900" stroke-width="3" stroke-linecap="round"/>
</svg>
