<svg width="57" height="57" viewBox="0 0 57 57" fill="none" xmlns="http://www.w3.org/2000/svg">
<path d="M28.5025 21.3755C26.6128 21.3755 24.8006 22.1262 23.4644 23.4623C22.1282 24.7985 21.3775 26.6108 21.3775 28.5005C21.3775 30.3902 22.1282 32.2024 23.4644 33.5386C24.8006 34.8748 26.6128 35.6255 28.5025 35.6255C30.3922 35.6255 32.2044 34.8748 33.5406 33.5386C34.8768 32.2024 35.6275 30.3902 35.6275 28.5005C35.6275 26.6108 34.8768 24.7985 33.5406 23.4623C32.2044 22.1262 30.3922 21.3755 28.5025 21.3755ZM28.5025 16.6255C31.6519 16.6255 34.6724 17.8766 36.8994 20.1036C39.1264 22.3306 40.3775 25.351 40.3775 28.5005C40.3775 31.6499 39.1264 34.6704 36.8994 36.8974C34.6724 39.1244 31.6519 40.3755 28.5025 40.3755C25.3531 40.3755 22.3326 39.1244 20.1056 36.8974C17.8786 34.6704 16.6275 31.6499 16.6275 28.5005C16.6275 25.351 17.8786 22.3306 20.1056 20.1036C22.3326 17.8766 25.3531 16.6255 28.5025 16.6255ZM43.94 16.0317C43.94 16.8191 43.6272 17.5742 43.0705 18.131C42.5137 18.6877 41.7586 19.0005 40.9712 19.0005C40.1839 19.0005 39.4288 18.6877 38.872 18.131C38.3153 17.5742 38.0025 16.8191 38.0025 16.0317C38.0025 15.2444 38.3153 14.4893 38.872 13.9325C39.4288 13.3758 40.1839 13.063 40.9712 13.063C41.7586 13.063 42.5137 13.3758 43.0705 13.9325C43.6272 14.4893 43.94 15.2444 43.94 16.0317ZM28.5025 9.50049C22.6267 9.50049 21.6672 9.51711 18.9336 9.63824C17.0716 9.72611 15.8224 9.97549 14.6634 10.4267C13.6935 10.7828 12.8166 11.3536 12.0984 12.0964C11.355 12.8146 10.7835 13.6914 10.4264 14.6614C9.97512 15.8251 9.72575 17.072 9.64025 18.9316C9.51675 21.5536 9.50012 22.4704 9.50012 28.5005C9.50012 34.3786 9.51675 35.3357 9.63787 38.0694C9.72575 39.929 9.97512 41.1806 10.424 42.3372C10.8277 43.3704 11.3027 44.1137 12.0912 44.9022C12.8916 45.7002 13.635 46.1776 14.6562 46.5719C15.8295 47.0255 17.0787 47.2772 18.9312 47.3627C21.5532 47.4862 22.47 47.5005 28.5001 47.5005C34.3782 47.5005 35.3354 47.4839 38.069 47.3627C39.9262 47.2749 41.1755 47.0255 42.3369 46.5766C43.3059 46.2188 44.1824 45.6482 44.9019 44.907C45.7022 44.109 46.1796 43.3656 46.5739 42.342C47.0251 41.1735 47.2769 39.9242 47.3624 38.067C47.4859 35.4474 47.5001 34.5282 47.5001 28.5005C47.5001 22.6247 47.4835 21.6652 47.3624 18.9316C47.2745 17.0744 47.0227 15.8204 46.5739 14.6614C46.2159 13.6924 45.6454 12.8159 44.9042 12.0964C44.1864 11.3526 43.3095 10.781 42.3392 10.4244C41.1755 9.97311 39.9262 9.72374 38.069 9.63824C35.4494 9.51474 34.5326 9.50049 28.5001 9.50049M28.5001 4.75049C34.953 4.75049 35.7581 4.77424 38.2922 4.89299C40.8192 5.01174 42.5435 5.40836 44.0564 5.99736C45.6239 6.60061 46.9444 7.41761 48.2649 8.73574C49.4725 9.92299 50.407 11.3591 51.0032 12.9442C51.5899 14.4571 51.9889 16.1814 52.1076 18.7107C52.2192 21.2425 52.2501 22.0476 52.2501 28.5005C52.2501 34.9534 52.2264 35.7585 52.1076 38.2902C51.9889 40.8196 51.5899 42.5415 51.0032 44.0567C50.4087 45.6427 49.474 47.0792 48.2649 48.2652C47.0773 49.4725 45.6412 50.4069 44.0564 51.0036C42.5435 51.5902 40.8192 51.9892 38.2922 52.108C35.7581 52.2196 34.953 52.2505 28.5001 52.2505C22.0472 52.2505 21.2421 52.2267 18.708 52.108C16.181 51.9892 14.4591 51.5902 12.9439 51.0036C11.3581 50.4086 9.92175 49.474 8.73537 48.2652C7.52752 47.0781 6.59303 45.6419 5.997 44.0567C5.408 42.5439 5.01137 40.8196 4.89262 38.2902C4.77862 35.7585 4.75012 34.9534 4.75012 28.5005C4.75012 22.0476 4.77387 21.2425 4.89262 18.7107C5.01137 16.1814 5.408 14.4595 5.997 12.9442C6.59131 11.3582 7.52603 9.92163 8.73537 8.73574C9.92209 7.52741 11.3584 6.59285 12.9439 5.99736C14.4567 5.40836 16.1786 5.01174 18.708 4.89299C21.2445 4.78136 22.0496 4.75049 28.5025 4.75049" fill="white"/>
</svg>
