<svg width="40" height="40" viewBox="0 0 40 40" fill="none" xmlns="http://www.w3.org/2000/svg">
<g clip-path="url(#clip0_479_950)">
<mask id="mask0_479_950" style="mask-type:luminance" maskUnits="userSpaceOnUse" x="0" y="0" width="40" height="40">
<path d="M0 0H40V40H0V0Z" fill="white"/>
<path d="M14.6154 13.8462C14.6154 14.4582 14.3723 15.0452 13.9395 15.4779C13.5067 15.9107 12.9197 16.1539 12.3077 16.1539C11.6957 16.1539 11.1087 15.9107 10.6759 15.4779C10.2431 15.0452 10 14.4582 10 13.8462C10 13.2341 10.2431 12.6472 10.6759 12.2144C11.1087 11.7816 11.6957 11.5385 12.3077 11.5385C12.9197 11.5385 13.5067 11.7816 13.9395 12.2144C14.3723 12.6472 14.6154 13.2341 14.6154 13.8462ZM14.6154 20C14.6154 20.612 14.3723 21.199 13.9395 21.6318C13.5067 22.0646 12.9197 22.3077 12.3077 22.3077C11.6957 22.3077 11.1087 22.0646 10.6759 21.6318C10.2431 21.199 10 20.612 10 20C10 19.388 10.2431 18.801 10.6759 18.3682C11.1087 17.9354 11.6957 17.6923 12.3077 17.6923C12.9197 17.6923 13.5067 17.9354 13.9395 18.3682C14.3723 18.801 14.6154 19.388 14.6154 20ZM14.6154 26.1539C14.6154 26.7659 14.3723 27.3529 13.9395 27.7856C13.5067 28.2184 12.9197 28.4615 12.3077 28.4615C11.6957 28.4615 11.1087 28.2184 10.6759 27.7856C10.2431 27.3529 10 26.7659 10 26.1539C10 25.5418 10.2431 24.9548 10.6759 24.5221C11.1087 24.0893 11.6957 23.8462 12.3077 23.8462C12.9197 23.8462 13.5067 24.0893 13.9395 24.5221C14.3723 24.9548 14.6154 25.5418 14.6154 26.1539Z" fill="black"/>
<path fill-rule="evenodd" clip-rule="evenodd" d="M16.1538 14.6154C16.1538 14.4113 16.2349 14.2157 16.3791 14.0714C16.5234 13.9272 16.719 13.8461 16.923 13.8461H29.2307C29.4347 13.8461 29.6304 13.9272 29.7747 14.0714C29.9189 14.2157 30 14.4113 30 14.6154C30 14.8194 29.9189 15.015 29.7747 15.1593C29.6304 15.3035 29.4347 15.3846 29.2307 15.3846H16.923C16.719 15.3846 16.5234 15.3035 16.3791 15.1593C16.2349 15.015 16.1538 14.8194 16.1538 14.6154ZM16.1538 20.7692C16.1538 20.5652 16.2349 20.3695 16.3791 20.2253C16.5234 20.081 16.719 20 16.923 20H29.2307C29.4347 20 29.6304 20.081 29.7747 20.2253C29.9189 20.3695 30 20.5652 30 20.7692C30 20.9732 29.9189 21.1689 29.7747 21.3131C29.6304 21.4574 29.4347 21.5384 29.2307 21.5384H16.923C16.719 21.5384 16.5234 21.4574 16.3791 21.3131C16.2349 21.1689 16.1538 20.9732 16.1538 20.7692ZM16.1538 26.9231C16.1538 26.719 16.2349 26.5234 16.3791 26.3791C16.5234 26.2349 16.719 26.1538 16.923 26.1538H29.2307C29.4347 26.1538 29.6304 26.2349 29.7747 26.3791C29.9189 26.5234 30 26.719 30 26.9231C30 27.1271 29.9189 27.3227 29.7747 27.467C29.6304 27.6112 29.4347 27.6923 29.2307 27.6923H16.923C16.719 27.6923 16.5234 27.6112 16.3791 27.467C16.2349 27.3227 16.1538 27.1271 16.1538 26.9231Z" fill="black"/>
</mask>
<g mask="url(#mask0_479_950)">
<path d="M20 40C31.0457 40 40 31.0457 40 20C40 8.9543 31.0457 0 20 0C8.9543 0 0 8.9543 0 20C0 31.0457 8.9543 40 20 40Z" fill="#254900"/>
</g>
</g>
<defs>
<clipPath id="clip0_479_950">
<rect width="40" height="40" fill="white"/>
</clipPath>
</defs>
</svg>
