<svg width="399" height="95" viewBox="0 0 399 95" fill="none" xmlns="http://www.w3.org/2000/svg">
<rect width="368.521" height="95" rx="14" fill="white"/>
<path fill-rule="evenodd" clip-rule="evenodd" d="M399 14C399 6.26801 392.732 0 385 0H14C6.26801 0 0 6.26801 0 14V81C0 88.732 6.26801 95 14 95H42.5241C47.7575 95 52 90.7575 52 85.5241V85.5241C52 81.7248 49.6583 78.3906 46.4896 76.2944C37.1561 70.1199 31 59.5289 31 47.5C31 28.4462 46.4462 13 65.5 13C84.5538 13 100 28.4462 100 47.5C100 59.9285 93.428 70.8221 83.5696 76.8951C80.3724 78.8647 78 82.1393 78 85.8946V85.8946C78 90.9233 82.0766 95 87.1054 95H385C392.732 95 399 88.732 399 81V14ZM65 95C68.3137 95 71 92.3137 71 89V79.6658V79.6658C71 76.7789 72.7723 74.1881 75.4629 73.1418V73.1418C85.7373 69.1462 93 59.1626 93 47.5C93 32.3122 80.6878 20 65.5 20C50.3122 20 38 32.3122 38 47.5C38 58.8581 44.8873 68.6237 54.7414 72.8178V72.8178C57.3237 73.9169 59 76.4521 59 79.2587V79.2587V89C59 92.3137 61.6863 95 65 95V95Z" fill="#688840"/>
<path d="M139.45 68.6C138.57 68.6 137.69 68.57 136.81 68.51C135.95 68.45 135.28 68.38 134.8 68.3C133.86 66.32 132.89 63.93 131.89 61.13C130.89 58.31 129.9 55.32 128.92 52.16C127.96 49 127.06 45.89 126.22 42.83C125.38 39.75 124.64 36.94 124 34.4C123.38 31.86 122.93 29.82 122.65 28.28C123.35 28.04 124.22 27.85 125.26 27.71C126.3 27.55 127.33 27.43 128.35 27.35C129.37 27.25 130.2 27.2 130.84 27.2C130.92 27.74 131.11 28.72 131.41 30.14C131.71 31.56 132.09 33.28 132.55 35.3C133.01 37.32 133.53 39.52 134.11 41.9C134.69 44.26 135.29 46.67 135.91 49.13C136.53 51.59 137.15 53.98 137.77 56.3C138.39 58.62 138.96 60.72 139.48 62.6L138.85 62.75C139.49 60.81 140.1 58.64 140.68 56.24C141.28 53.84 141.85 51.35 142.39 48.77C142.95 46.19 143.46 43.68 143.92 41.24C144.38 38.78 144.78 36.54 145.12 34.52C145.48 32.48 145.76 30.81 145.96 29.51C146.16 28.19 146.28 27.39 146.32 27.11C147.54 27.15 148.89 27.3 150.37 27.56C151.85 27.8 153.16 28.14 154.3 28.58C153.4 32.72 152.47 36.69 151.51 40.49C150.55 44.29 149.62 47.82 148.72 51.08C147.82 54.32 147 57.18 146.26 59.66C145.52 62.14 144.91 64.14 144.43 65.66C143.97 67.18 143.68 68.12 143.56 68.48C143.12 68.52 142.53 68.55 141.79 68.57C141.07 68.59 140.29 68.6 139.45 68.6ZM168.063 68.36C167.503 68.36 166.803 68.35 165.963 68.33C165.143 68.31 164.313 68.28 163.473 68.24C162.633 68.2 161.903 68.14 161.283 68.06C161.243 66.64 161.203 64.87 161.163 62.75C161.123 60.63 161.093 58.41 161.073 56.09C161.053 53.75 161.043 51.57 161.043 49.55C161.043 46.59 161.053 43.33 161.073 39.77C161.113 36.21 161.163 32.46 161.223 28.52C161.483 28.5 161.893 28.48 162.453 28.46C163.013 28.44 163.633 28.42 164.313 28.4C164.993 28.38 165.663 28.37 166.323 28.37C166.983 28.35 167.543 28.34 168.003 28.34C168.083 30.7 168.163 33.21 168.243 35.87C168.323 38.51 168.383 41.14 168.423 43.76C168.463 46.36 168.483 48.78 168.483 51.02C168.483 52.06 168.473 53.25 168.453 54.59C168.453 55.91 168.443 57.27 168.423 58.67C168.403 60.07 168.373 61.42 168.333 62.72C168.313 64 168.273 65.14 168.213 66.14C168.173 67.12 168.123 67.86 168.063 68.36ZM177.284 67.49C177.364 66.39 177.424 64.89 177.464 62.99C177.524 61.07 177.564 58.92 177.584 56.54C177.624 54.16 177.644 51.69 177.644 49.13C177.644 46.59 177.624 44.08 177.584 41.6C177.564 39.1 177.524 36.79 177.464 34.67C177.424 32.55 177.364 30.78 177.284 29.36C177.704 29.3 178.354 29.24 179.234 29.18C180.134 29.1 181.044 29.06 181.964 29.06C182.504 29.06 183.104 29.08 183.764 29.12C184.444 29.14 184.904 29.18 185.144 29.24C185.204 30.54 185.244 32.12 185.264 33.98C185.284 35.84 185.284 37.86 185.264 40.04C185.264 42.22 185.234 44.47 185.174 46.79C185.134 49.09 185.074 51.34 184.994 53.54C184.974 54.92 184.934 56.21 184.874 57.41C184.834 58.61 184.774 59.58 184.694 60.32C186.154 60.24 187.724 60.16 189.404 60.08C191.084 60 192.804 59.94 194.564 59.9C196.324 59.84 198.034 59.81 199.694 59.81C199.754 60.25 199.794 60.89 199.814 61.73C199.854 62.57 199.874 63.46 199.874 64.4C199.894 65.32 199.894 66.12 199.874 66.8C197.594 67.06 195.354 67.26 193.154 67.4C190.974 67.54 188.904 67.63 186.944 67.67C185.204 67.71 183.524 67.71 181.904 67.67C180.284 67.63 178.744 67.57 177.284 67.49ZM208.092 68.9C207.972 67.92 207.822 66.52 207.642 64.7C207.482 62.88 207.292 60.81 207.072 58.49C206.872 56.15 206.662 53.71 206.442 51.17C206.242 48.63 206.042 46.13 205.842 43.67C205.642 41.21 205.462 38.95 205.302 36.89C205.142 34.81 205.002 33.08 204.882 31.7C204.782 30.3 204.722 29.41 204.702 29.03C205.362 28.93 206.272 28.82 207.432 28.7C208.612 28.58 209.862 28.48 211.182 28.4C212.502 28.3 213.712 28.25 214.812 28.25C218.412 28.25 221.442 28.7 223.902 29.6C226.362 30.5 228.322 31.83 229.782 33.59C231.262 35.33 232.322 37.48 232.962 40.04C233.602 42.58 233.922 45.51 233.922 48.83C233.922 52.69 233.422 55.9 232.422 58.46C231.442 61.02 229.912 63.05 227.832 64.55C225.752 66.05 223.072 67.14 219.792 67.82C216.532 68.48 212.632 68.84 208.092 68.9ZM214.782 61.49C217.762 61.31 220.122 60.75 221.862 59.81C223.602 58.85 224.842 57.49 225.582 55.73C226.322 53.95 226.692 51.74 226.692 49.1C226.692 46.32 226.342 43.83 225.642 41.63C224.962 39.43 223.802 37.69 222.162 36.41C220.522 35.11 218.292 34.46 215.472 34.46C215.032 34.46 214.562 34.47 214.062 34.49C213.582 34.51 213.132 34.53 212.712 34.55C212.892 37.29 213.092 40.22 213.312 43.34C213.532 46.46 213.762 49.58 214.002 52.7C214.262 55.82 214.522 58.75 214.782 61.49ZM260.367 68.21C260.367 66.41 260.377 64.23 260.397 61.67C260.417 59.11 260.447 56.39 260.487 53.51C260.547 50.61 260.607 47.72 260.667 44.84C260.747 41.96 260.817 39.28 260.877 36.8C260.957 34.3 261.037 32.2 261.117 30.5C261.857 30.42 262.727 30.36 263.727 30.32C264.727 30.26 265.707 30.22 266.667 30.2C267.647 30.16 268.477 30.14 269.157 30.14C269.837 30.14 270.227 30.14 270.327 30.14C270.367 30.22 270.537 30.76 270.837 31.76C271.137 32.74 271.527 34.03 272.007 35.63C272.487 37.23 273.007 39 273.567 40.94C274.127 42.86 274.687 44.82 275.247 46.82C275.827 48.8 276.357 50.68 276.837 52.46C277.337 54.24 277.747 55.77 278.067 57.05C278.387 58.31 278.577 59.18 278.637 59.66L277.797 59.75C278.037 59.11 278.387 58.06 278.847 56.6C279.327 55.14 279.867 53.44 280.467 51.5C281.067 49.56 281.687 47.53 282.327 45.41C282.987 43.27 283.607 41.2 284.187 39.2C284.787 37.18 285.307 35.38 285.747 33.8C286.187 32.2 286.497 30.99 286.677 30.17C287.337 30.17 288.177 30.19 289.197 30.23C290.217 30.25 291.237 30.3 292.257 30.38C293.277 30.44 294.107 30.52 294.747 30.62C295.147 32.48 295.417 34.92 295.557 37.94C295.717 40.96 295.797 44.15 295.797 47.51C295.797 50.03 295.767 52.6 295.707 55.22C295.667 57.82 295.597 60.24 295.497 62.48C295.417 64.72 295.317 66.56 295.197 68C294.457 68 293.647 67.99 292.767 67.97C291.887 67.93 291.047 67.89 290.247 67.85C289.467 67.79 288.837 67.74 288.357 67.7C288.517 65.94 288.637 63.87 288.717 61.49C288.817 59.11 288.887 56.67 288.927 54.17C288.947 52.63 288.957 51.04 288.957 49.4C288.977 47.76 288.987 46.26 288.987 44.9C289.007 43.52 289.017 42.46 289.017 41.72C288.797 42.62 288.447 43.83 287.967 45.35C287.507 46.85 286.977 48.52 286.377 50.36C285.777 52.18 285.157 54.03 284.517 55.91C283.877 57.77 283.267 59.53 282.687 61.19C282.107 62.85 281.597 64.27 281.157 65.45C280.717 66.63 280.387 67.42 280.167 67.82C279.927 67.84 279.587 67.86 279.147 67.88C278.707 67.88 278.347 67.88 278.067 67.88C277.607 67.88 277.137 67.86 276.657 67.82C276.197 67.78 275.697 67.73 275.157 67.67C275.117 67.45 274.977 66.89 274.737 65.99C274.497 65.09 274.187 63.94 273.807 62.54C273.427 61.12 273.007 59.57 272.547 57.89C272.087 56.21 271.617 54.49 271.137 52.73C270.657 50.95 270.187 49.24 269.727 47.6C269.267 45.96 268.847 44.48 268.467 43.16C268.107 41.84 267.807 40.8 267.567 40.04C267.567 42.02 267.567 44.19 267.567 46.55C267.587 48.89 267.597 51.25 267.597 53.63C267.597 55.99 267.597 58.2 267.597 60.26C267.597 62.3 267.597 64.02 267.597 65.42C267.597 66.82 267.597 67.7 267.597 68.06C267.057 68.08 266.367 68.1 265.527 68.12C264.707 68.16 263.837 68.18 262.917 68.18C262.017 68.2 261.167 68.21 260.367 68.21ZM307.542 68.45C307.122 68.45 306.572 68.44 305.892 68.42C305.232 68.4 304.522 68.37 303.762 68.33C303.022 68.31 302.302 68.28 301.602 68.24C300.922 68.2 300.352 68.16 299.892 68.12C300.092 67.02 300.382 65.53 300.762 63.65C301.142 61.75 301.582 59.61 302.082 57.23C302.602 54.85 303.152 52.36 303.732 49.76C304.332 47.16 304.932 44.58 305.532 42.02C306.152 39.46 306.742 37.05 307.302 34.79C307.862 32.51 308.372 30.53 308.832 28.85C310.332 28.63 311.992 28.43 313.812 28.25C315.632 28.07 317.462 27.98 319.302 27.98C320.182 27.98 321.072 28.01 321.972 28.07C322.892 28.11 323.772 28.19 324.612 28.31C325.012 30.07 325.402 32.14 325.782 34.52C326.182 36.9 326.572 39.69 326.952 42.89C327.332 46.07 327.712 49.73 328.092 53.87C328.492 58.01 328.882 62.71 329.262 67.97C328.722 68.05 327.992 68.13 327.072 68.21C326.172 68.29 325.222 68.35 324.222 68.39C323.242 68.43 322.362 68.45 321.582 68.45C321.542 67.87 321.502 67.14 321.462 66.26C321.422 65.38 321.372 64.42 321.312 63.38C321.252 62.34 321.192 61.3 321.132 60.26C321.092 59.2 321.052 58.21 321.012 57.29C320.972 56.35 320.932 55.57 320.892 54.95C320.252 54.95 319.502 54.97 318.642 55.01C317.782 55.05 316.892 55.1 315.972 55.16C315.052 55.22 314.172 55.29 313.332 55.37C312.492 55.45 311.762 55.53 311.142 55.61C310.522 55.67 310.102 55.72 309.882 55.76C309.542 57.34 309.212 58.94 308.892 60.56C308.572 62.18 308.292 63.68 308.052 65.06C307.832 66.42 307.662 67.55 307.542 68.45ZM310.842 49.55C311.482 49.41 312.402 49.28 313.602 49.16C314.802 49.04 316.052 48.94 317.352 48.86C318.652 48.76 319.772 48.69 320.712 48.65C320.672 48.11 320.602 47.19 320.502 45.89C320.422 44.59 320.322 43.17 320.202 41.63C320.102 40.07 319.992 38.62 319.872 37.28C319.752 35.92 319.642 34.9 319.542 34.22C319.122 34.22 318.522 34.25 317.742 34.31C316.962 34.35 316.212 34.4 315.492 34.46C314.772 34.52 314.262 34.57 313.962 34.61C313.842 35.13 313.662 35.92 313.422 36.98C313.202 38.02 312.942 39.23 312.642 40.61C312.362 41.99 312.062 43.45 311.742 44.99C311.422 46.51 311.122 48.03 310.842 49.55ZM337.526 68.9C337.406 67.92 337.256 66.52 337.076 64.7C336.916 62.88 336.726 60.81 336.506 58.49C336.306 56.15 336.096 53.71 335.876 51.17C335.676 48.63 335.476 46.13 335.276 43.67C335.076 41.21 334.896 38.95 334.736 36.89C334.576 34.81 334.436 33.08 334.316 31.7C334.216 30.3 334.156 29.41 334.136 29.03C334.796 28.93 335.706 28.82 336.866 28.7C338.046 28.58 339.296 28.48 340.616 28.4C341.936 28.3 343.146 28.25 344.246 28.25C347.846 28.25 350.876 28.7 353.336 29.6C355.796 30.5 357.756 31.83 359.216 33.59C360.696 35.33 361.756 37.48 362.396 40.04C363.036 42.58 363.356 45.51 363.356 48.83C363.356 52.69 362.856 55.9 361.856 58.46C360.876 61.02 359.346 63.05 357.266 64.55C355.186 66.05 352.506 67.14 349.226 67.82C345.966 68.48 342.066 68.84 337.526 68.9ZM344.216 61.49C347.196 61.31 349.556 60.75 351.296 59.81C353.036 58.85 354.276 57.49 355.016 55.73C355.756 53.95 356.126 51.74 356.126 49.1C356.126 46.32 355.776 43.83 355.076 41.63C354.396 39.43 353.236 37.69 351.596 36.41C349.956 35.11 347.726 34.46 344.906 34.46C344.466 34.46 343.996 34.47 343.496 34.49C343.016 34.51 342.566 34.53 342.146 34.55C342.326 37.29 342.526 40.22 342.746 43.34C342.966 46.46 343.196 49.58 343.436 52.7C343.696 55.82 343.956 58.75 344.216 61.49Z" fill="white"/>
</svg>
