<svg width="260" height="176" viewBox="0 0 260 176" fill="none" xmlns="http://www.w3.org/2000/svg">
<rect y="24.1569" width="193.143" height="151.843" rx="14" fill="white"/>
<path fill-rule="evenodd" clip-rule="evenodd" d="M260 14C260 6.26801 253.732 0 246 0H14C6.26801 0 0 6.26801 0 14V162C0 169.732 6.26801 176 14 176H42.5241C47.7575 176 52 171.757 52 166.524V166.524C52 162.725 49.6583 159.391 46.4896 157.294C37.1561 151.12 31 140.529 31 128.5C31 109.446 46.4462 94 65.5 94C84.5538 94 100 109.446 100 128.5C100 140.929 93.428 151.822 83.5696 157.895C80.3724 159.865 78 163.139 78 166.895V166.895C78 171.923 82.0766 176 87.1054 176H246C253.732 176 260 169.732 260 162V14ZM65 176C68.3137 176 71 173.314 71 170V160.666V160.666C71 157.779 72.7723 155.188 75.4629 154.142V154.142C85.7373 150.146 93 140.163 93 128.5C93 113.312 80.6878 101 65.5 101C50.3122 101 38 113.312 38 128.5C38 139.858 44.8873 149.624 54.7414 153.818V153.818C57.3237 154.917 59 157.452 59 160.259V160.259V170C59 173.314 61.6863 176 65 176V176Z" fill="#688840"/>
<path d="M55.45 67.6C54.57 67.6 53.69 67.57 52.81 67.51C51.95 67.45 51.28 67.38 50.8 67.3C49.86 65.32 48.89 62.93 47.89 60.13C46.89 57.31 45.9 54.32 44.92 51.16C43.96 48 43.06 44.89 42.22 41.83C41.38 38.75 40.64 35.94 40 33.4C39.38 30.86 38.93 28.82 38.65 27.28C39.35 27.04 40.22 26.85 41.26 26.71C42.3 26.55 43.33 26.43 44.35 26.35C45.37 26.25 46.2 26.2 46.84 26.2C46.92 26.74 47.11 27.72 47.41 29.14C47.71 30.56 48.09 32.28 48.55 34.3C49.01 36.32 49.53 38.52 50.11 40.9C50.69 43.26 51.29 45.67 51.91 48.13C52.53 50.59 53.15 52.98 53.77 55.3C54.39 57.62 54.96 59.72 55.48 61.6L54.85 61.75C55.49 59.81 56.1 57.64 56.68 55.24C57.28 52.84 57.85 50.35 58.39 47.77C58.95 45.19 59.46 42.68 59.92 40.24C60.38 37.78 60.78 35.54 61.12 33.52C61.48 31.48 61.76 29.81 61.96 28.51C62.16 27.19 62.28 26.39 62.32 26.11C63.54 26.15 64.89 26.3 66.37 26.56C67.85 26.8 69.16 27.14 70.3 27.58C69.4 31.72 68.47 35.69 67.51 39.49C66.55 43.29 65.62 46.82 64.72 50.08C63.82 53.32 63 56.18 62.26 58.66C61.52 61.14 60.91 63.14 60.43 64.66C59.97 66.18 59.68 67.12 59.56 67.48C59.12 67.52 58.53 67.55 57.79 67.57C57.07 67.59 56.29 67.6 55.45 67.6ZM84.0634 67.36C83.5034 67.36 82.8034 67.35 81.9634 67.33C81.1434 67.31 80.3134 67.28 79.4734 67.24C78.6334 67.2 77.9034 67.14 77.2834 67.06C77.2434 65.64 77.2034 63.87 77.1634 61.75C77.1234 59.63 77.0934 57.41 77.0734 55.09C77.0534 52.75 77.0434 50.57 77.0434 48.55C77.0434 45.59 77.0534 42.33 77.0734 38.77C77.1134 35.21 77.1634 31.46 77.2234 27.52C77.4834 27.5 77.8934 27.48 78.4534 27.46C79.0134 27.44 79.6334 27.42 80.3134 27.4C80.9934 27.38 81.6634 27.37 82.3234 27.37C82.9834 27.35 83.5434 27.34 84.0034 27.34C84.0834 29.7 84.1634 32.21 84.2434 34.87C84.3234 37.51 84.3834 40.14 84.4234 42.76C84.4634 45.36 84.4834 47.78 84.4834 50.02C84.4834 51.06 84.4734 52.25 84.4534 53.59C84.4534 54.91 84.4434 56.27 84.4234 57.67C84.4034 59.07 84.3734 60.42 84.3334 61.72C84.3134 63 84.2734 64.14 84.2134 65.14C84.1734 66.12 84.1234 66.86 84.0634 67.36ZM93.2842 66.49C93.3642 65.39 93.4242 63.89 93.4642 61.99C93.5242 60.07 93.5642 57.92 93.5842 55.54C93.6242 53.16 93.6442 50.69 93.6442 48.13C93.6442 45.59 93.6242 43.08 93.5842 40.6C93.5642 38.1 93.5242 35.79 93.4642 33.67C93.4242 31.55 93.3642 29.78 93.2842 28.36C93.7042 28.3 94.3542 28.24 95.2342 28.18C96.1342 28.1 97.0442 28.06 97.9642 28.06C98.5042 28.06 99.1042 28.08 99.7642 28.12C100.444 28.14 100.904 28.18 101.144 28.24C101.204 29.54 101.244 31.12 101.264 32.98C101.284 34.84 101.284 36.86 101.264 39.04C101.264 41.22 101.234 43.47 101.174 45.79C101.134 48.09 101.074 50.34 100.994 52.54C100.974 53.92 100.934 55.21 100.874 56.41C100.834 57.61 100.774 58.58 100.694 59.32C102.154 59.24 103.724 59.16 105.404 59.08C107.084 59 108.804 58.94 110.564 58.9C112.324 58.84 114.034 58.81 115.694 58.81C115.754 59.25 115.794 59.89 115.814 60.73C115.854 61.57 115.874 62.46 115.874 63.4C115.894 64.32 115.894 65.12 115.874 65.8C113.594 66.06 111.354 66.26 109.154 66.4C106.974 66.54 104.904 66.63 102.944 66.67C101.204 66.71 99.5242 66.71 97.9042 66.67C96.2842 66.63 94.7442 66.57 93.2842 66.49ZM124.092 67.9C123.972 66.92 123.822 65.52 123.642 63.7C123.482 61.88 123.292 59.81 123.072 57.49C122.872 55.15 122.662 52.71 122.442 50.17C122.242 47.63 122.042 45.13 121.842 42.67C121.642 40.21 121.462 37.95 121.302 35.89C121.142 33.81 121.002 32.08 120.882 30.7C120.782 29.3 120.722 28.41 120.702 28.03C121.362 27.93 122.272 27.82 123.432 27.7C124.612 27.58 125.862 27.48 127.182 27.4C128.502 27.3 129.712 27.25 130.812 27.25C134.412 27.25 137.442 27.7 139.902 28.6C142.362 29.5 144.322 30.83 145.782 32.59C147.262 34.33 148.322 36.48 148.962 39.04C149.602 41.58 149.922 44.51 149.922 47.83C149.922 51.69 149.422 54.9 148.422 57.46C147.442 60.02 145.912 62.05 143.832 63.55C141.752 65.05 139.072 66.14 135.792 66.82C132.532 67.48 128.632 67.84 124.092 67.9ZM130.782 60.49C133.762 60.31 136.122 59.75 137.862 58.81C139.602 57.85 140.842 56.49 141.582 54.73C142.322 52.95 142.692 50.74 142.692 48.1C142.692 45.32 142.342 42.83 141.642 40.63C140.962 38.43 139.802 36.69 138.162 35.41C136.522 34.11 134.292 33.46 131.472 33.46C131.032 33.46 130.562 33.47 130.062 33.49C129.582 33.51 129.132 33.53 128.712 33.55C128.892 36.29 129.092 39.22 129.312 42.34C129.532 45.46 129.762 48.58 130.002 51.7C130.262 54.82 130.522 57.75 130.782 60.49Z" fill="white"/>
<path d="M127.84 144.21C127.84 142.41 127.85 140.23 127.87 137.67C127.89 135.11 127.92 132.39 127.96 129.51C128.02 126.61 128.08 123.72 128.14 120.84C128.22 117.96 128.29 115.28 128.35 112.8C128.43 110.3 128.51 108.2 128.59 106.5C129.33 106.42 130.2 106.36 131.2 106.32C132.2 106.26 133.18 106.22 134.14 106.2C135.12 106.16 135.95 106.14 136.63 106.14C137.31 106.14 137.7 106.14 137.8 106.14C137.84 106.22 138.01 106.76 138.31 107.76C138.61 108.74 139 110.03 139.48 111.63C139.96 113.23 140.48 115 141.04 116.94C141.6 118.86 142.16 120.82 142.72 122.82C143.3 124.8 143.83 126.68 144.31 128.46C144.81 130.24 145.22 131.77 145.54 133.05C145.86 134.31 146.05 135.18 146.11 135.66L145.27 135.75C145.51 135.11 145.86 134.06 146.32 132.6C146.8 131.14 147.34 129.44 147.94 127.5C148.54 125.56 149.16 123.53 149.8 121.41C150.46 119.27 151.08 117.2 151.66 115.2C152.26 113.18 152.78 111.38 153.22 109.8C153.66 108.2 153.97 106.99 154.15 106.17C154.81 106.17 155.65 106.19 156.67 106.23C157.69 106.25 158.71 106.3 159.73 106.38C160.75 106.44 161.58 106.52 162.22 106.62C162.62 108.48 162.89 110.92 163.03 113.94C163.19 116.96 163.27 120.15 163.27 123.51C163.27 126.03 163.24 128.6 163.18 131.22C163.14 133.82 163.07 136.24 162.97 138.48C162.89 140.72 162.79 142.56 162.67 144C161.93 144 161.12 143.99 160.24 143.97C159.36 143.93 158.52 143.89 157.72 143.85C156.94 143.79 156.31 143.74 155.83 143.7C155.99 141.94 156.11 139.87 156.19 137.49C156.29 135.11 156.36 132.67 156.4 130.17C156.42 128.63 156.43 127.04 156.43 125.4C156.45 123.76 156.46 122.26 156.46 120.9C156.48 119.52 156.49 118.46 156.49 117.72C156.27 118.62 155.92 119.83 155.44 121.35C154.98 122.85 154.45 124.52 153.85 126.36C153.25 128.18 152.63 130.03 151.99 131.91C151.35 133.77 150.74 135.53 150.16 137.19C149.58 138.85 149.07 140.27 148.63 141.45C148.19 142.63 147.86 143.42 147.64 143.82C147.4 143.84 147.06 143.86 146.62 143.88C146.18 143.88 145.82 143.88 145.54 143.88C145.08 143.88 144.61 143.86 144.13 143.82C143.67 143.78 143.17 143.73 142.63 143.67C142.59 143.45 142.45 142.89 142.21 141.99C141.97 141.09 141.66 139.94 141.28 138.54C140.9 137.12 140.48 135.57 140.02 133.89C139.56 132.21 139.09 130.49 138.61 128.73C138.13 126.95 137.66 125.24 137.2 123.6C136.74 121.96 136.32 120.48 135.94 119.16C135.58 117.84 135.28 116.8 135.04 116.04C135.04 118.02 135.04 120.19 135.04 122.55C135.06 124.89 135.07 127.25 135.07 129.63C135.07 131.99 135.07 134.2 135.07 136.26C135.07 138.3 135.07 140.02 135.07 141.42C135.07 142.82 135.07 143.7 135.07 144.06C134.53 144.08 133.84 144.1 133 144.12C132.18 144.16 131.31 144.18 130.39 144.18C129.49 144.2 128.64 144.21 127.84 144.21ZM175.015 144.45C174.595 144.45 174.045 144.44 173.365 144.42C172.705 144.4 171.995 144.37 171.235 144.33C170.495 144.31 169.775 144.28 169.075 144.24C168.395 144.2 167.825 144.16 167.365 144.12C167.565 143.02 167.855 141.53 168.235 139.65C168.615 137.75 169.055 135.61 169.555 133.23C170.075 130.85 170.625 128.36 171.205 125.76C171.805 123.16 172.405 120.58 173.005 118.02C173.625 115.46 174.215 113.05 174.775 110.79C175.335 108.51 175.845 106.53 176.305 104.85C177.805 104.63 179.465 104.43 181.285 104.25C183.105 104.07 184.935 103.98 186.775 103.98C187.655 103.98 188.545 104.01 189.445 104.07C190.365 104.11 191.245 104.19 192.085 104.31C192.485 106.07 192.875 108.14 193.255 110.52C193.655 112.9 194.045 115.69 194.425 118.89C194.805 122.07 195.185 125.73 195.565 129.87C195.965 134.01 196.355 138.71 196.735 143.97C196.195 144.05 195.465 144.13 194.545 144.21C193.645 144.29 192.695 144.35 191.695 144.39C190.715 144.43 189.835 144.45 189.055 144.45C189.015 143.87 188.975 143.14 188.935 142.26C188.895 141.38 188.845 140.42 188.785 139.38C188.725 138.34 188.665 137.3 188.605 136.26C188.565 135.2 188.525 134.21 188.485 133.29C188.445 132.35 188.405 131.57 188.365 130.95C187.725 130.95 186.975 130.97 186.115 131.01C185.255 131.05 184.365 131.1 183.445 131.16C182.525 131.22 181.645 131.29 180.805 131.37C179.965 131.45 179.235 131.53 178.615 131.61C177.995 131.67 177.575 131.72 177.355 131.76C177.015 133.34 176.685 134.94 176.365 136.56C176.045 138.18 175.765 139.68 175.525 141.06C175.305 142.42 175.135 143.55 175.015 144.45ZM178.315 125.55C178.955 125.41 179.875 125.28 181.075 125.16C182.275 125.04 183.525 124.94 184.825 124.86C186.125 124.76 187.245 124.69 188.185 124.65C188.145 124.11 188.075 123.19 187.975 121.89C187.895 120.59 187.795 119.17 187.675 117.63C187.575 116.07 187.465 114.62 187.345 113.28C187.225 111.92 187.115 110.9 187.015 110.22C186.595 110.22 185.995 110.25 185.215 110.31C184.435 110.35 183.685 110.4 182.965 110.46C182.245 110.52 181.735 110.57 181.435 110.61C181.315 111.13 181.135 111.92 180.895 112.98C180.675 114.02 180.415 115.23 180.115 116.61C179.835 117.99 179.535 119.45 179.215 120.99C178.895 122.51 178.595 124.03 178.315 125.55ZM204.999 144.9C204.879 143.92 204.729 142.52 204.549 140.7C204.389 138.88 204.199 136.81 203.979 134.49C203.779 132.15 203.569 129.71 203.349 127.17C203.149 124.63 202.949 122.13 202.749 119.67C202.549 117.21 202.369 114.95 202.209 112.89C202.049 110.81 201.909 109.08 201.789 107.7C201.689 106.3 201.629 105.41 201.609 105.03C202.269 104.93 203.179 104.82 204.339 104.7C205.519 104.58 206.769 104.48 208.089 104.4C209.409 104.3 210.619 104.25 211.719 104.25C215.319 104.25 218.349 104.7 220.809 105.6C223.269 106.5 225.229 107.83 226.689 109.59C228.169 111.33 229.229 113.48 229.869 116.04C230.509 118.58 230.829 121.51 230.829 124.83C230.829 128.69 230.329 131.9 229.329 134.46C228.349 137.02 226.819 139.05 224.739 140.55C222.659 142.05 219.979 143.14 216.699 143.82C213.439 144.48 209.539 144.84 204.999 144.9ZM211.689 137.49C214.669 137.31 217.029 136.75 218.769 135.81C220.509 134.85 221.749 133.49 222.489 131.73C223.229 129.95 223.599 127.74 223.599 125.1C223.599 122.32 223.249 119.83 222.549 117.63C221.869 115.43 220.709 113.69 219.069 112.41C217.429 111.11 215.199 110.46 212.379 110.46C211.939 110.46 211.469 110.47 210.969 110.49C210.489 110.51 210.039 110.53 209.619 110.55C209.799 113.29 209.999 116.22 210.219 119.34C210.439 122.46 210.669 125.58 210.909 128.7C211.169 131.82 211.429 134.75 211.689 137.49Z" fill="white"/>
</svg>
