<svg width="105" height="236" viewBox="0 0 105 236" fill="none" xmlns="http://www.w3.org/2000/svg">
<path d="M6.04053 234.348C15.2693 234.348 24.4981 234.348 33.7269 234.348C38.9565 234.348 44.1862 234.348 49.4158 234.348C54.4209 234.348 51.9131 223.301 53.1073 219.479C57.2931 206.085 57.5296 190.722 61.4132 177.13C64.7964 165.288 67.3956 152.961 70.7445 141.24C71.4323 138.833 73.7721 145.29 74.7437 147.598C77.4831 154.104 79.9634 161.418 83.5623 167.491C89.5797 177.645 88.0152 192.022 93.2012 202.97C96.3999 209.723 98.1053 222.995 102.43 228.401C104.914 231.506 84.2767 230.657 79.8708 230.657" stroke="#E9F1DF" stroke-width="3" stroke-linecap="round"/>
<path d="M70.642 143.906C70.642 129.663 68.7962 115.388 68.7962 101.351C68.7962 91.2088 65.1047 81.5372 65.1047 71.9214" stroke="#E9F1DF" stroke-width="3" stroke-linecap="round"/>
<path d="M65.1048 71.9217C43.7273 71.9217 21.6881 72.3623 2.34912 62.6929" stroke="#E9F1DF" stroke-width="3" stroke-linecap="round"/>
<path d="M61.4131 71.9214C63.0219 88.0092 79.7056 101.985 87.2537 115.194C92.8774 125.036 92.7909 132.377 92.7909 143.906" stroke="#E9F1DF" stroke-width="3" stroke-linecap="round"/>
<path d="M66.9504 68.2301C61.6089 67.6366 45.5671 57.7444 44.8013 51.6183C44.4438 48.7581 42.9556 46.843 42.9556 43.3124C42.9556 39.704 46.2745 37.9873 46.6471 35.0065C47.433 28.719 60.086 24.9222 64.6945 22.0862C70.2344 18.6769 79.8227 19.3934 85.408 22.4963C96.0792 28.4248 102.985 45.1208 97.9181 57.1555C93.942 66.5987 89.6266 64.3043 81.7164 67.8199C78.2416 69.3643 64.7416 69.3497 63.2589 66.3843" stroke="#E9F1DF" stroke-width="3" stroke-linecap="round"/>
<path d="M44.8013 1.78271C48.5128 2.24666 55.6176 11.3706 57.7216 14.2928C62.8967 21.4805 68.6018 27.2736 72.8978 35.0063C77.9454 44.092 90.0829 49.8936 94.6367 59.0012" stroke="#E9F1DF" stroke-width="3" stroke-linecap="round"/>
</svg>
