<svg width="40" height="40" viewBox="0 0 40 40" fill="none" xmlns="http://www.w3.org/2000/svg">
<path d="M19.9996 40C30.9218 40 40 30.9412 40 20C40 9.07806 30.9017 0 19.9795 0C9.03893 0 0 9.07806 0 20C0 30.9412 9.05817 40 19.9996 40ZM19.9812 22.9415C18.9413 22.9415 18.3732 22.3333 18.333 21.2934L18.0586 11.6088C18.0193 10.5296 18.8425 9.76575 19.9603 9.76575C21.0588 9.76575 21.9012 10.5497 21.8628 11.628L21.5875 21.2951C21.5482 22.3534 20.96 22.9424 19.9803 22.9424M19.9803 30.1581C18.8425 30.1581 17.7834 29.2563 17.7834 28.0398C17.7834 26.8242 18.8233 25.9232 19.9803 25.9232C21.1173 25.9232 22.1757 26.805 22.1757 28.0398C22.1757 29.2755 21.0972 30.1581 19.9803 30.1581Z" fill="#254900"/>
</svg>
