<svg width="40" height="40" viewBox="0 0 40 40" fill="none" xmlns="http://www.w3.org/2000/svg">
<circle cx="20" cy="20" r="20" fill="#254900"/>
<path d="M20.0001 9.33334C17.5256 9.33602 15.1532 10.2751 13.4035 11.9445C11.6538 13.6139 10.6696 15.8773 10.6667 18.2382C10.6667 25.8579 19.1516 31.6127 19.5133 31.8535C19.6559 31.9489 19.8259 32 20.0001 32C20.1743 32 20.3442 31.9489 20.4869 31.8535C20.8486 31.6127 29.3334 25.8579 29.3334 18.2382C29.3306 15.8773 28.3464 13.6139 26.5966 11.9445C24.8469 10.2751 22.4746 9.33602 20.0001 9.33334ZM20.0001 15.0001C20.6713 15.0001 21.3275 15.19 21.8857 15.5458C22.4438 15.9016 22.8788 16.4073 23.1357 16.999C23.3926 17.5907 23.4598 18.2418 23.3288 18.8699C23.1979 19.4981 22.8746 20.075 22.4 20.5279C21.9253 20.9808 21.3206 21.2892 20.6622 21.4141C20.0038 21.539 19.3214 21.4749 18.7013 21.2298C18.0811 20.9847 17.5511 20.5697 17.1781 20.0372C16.8052 19.5047 16.6061 18.8786 16.6061 18.2382C16.6061 17.3794 16.9637 16.5558 17.6002 15.9485C18.2367 15.3412 19.1 15.0001 20.0001 15.0001Z" fill="white"/>
</svg>
