<svg width="40" height="40" viewBox="0 0 40 40" fill="none" xmlns="http://www.w3.org/2000/svg">
<path d="M20 40C25.3043 40 30.3914 37.8929 34.1421 34.1421C37.8929 30.3914 40 25.3043 40 20C40 14.6957 37.8929 9.60859 34.1421 5.85786C30.3914 2.10714 25.3043 0 20 0C14.6957 0 9.60859 2.10714 5.85786 5.85786C2.10714 9.60859 0 14.6957 0 20C0 25.3043 2.10714 30.3914 5.85786 34.1421C9.60859 37.8929 14.6957 40 20 40ZM11.25 16.25C11.2501 14.7568 11.6324 13.2885 12.3603 11.9848C13.0883 10.6811 14.1378 9.58539 15.409 8.80193C16.6801 8.01847 18.1306 7.57334 19.6224 7.5089C21.1141 7.44445 22.5976 7.76284 23.9316 8.43376C25.2655 9.10468 26.4056 10.1058 27.2433 11.3419C28.081 12.5779 28.5884 14.0078 28.7173 15.4954C28.8462 16.983 28.5923 18.4789 27.9797 19.8406C27.3671 21.2023 26.4162 22.3846 25.2175 23.275C24.76 23.615 24.5075 23.9975 24.4425 24.35L24.3175 25H15.6825L15.5575 24.35C15.4925 23.9975 15.24 23.615 14.7825 23.275C13.6857 22.4615 12.7948 21.4023 12.1813 20.1823C11.5679 18.9623 11.2489 17.6155 11.25 16.25ZM16.705 30.46L16.15 27.5H23.85L23.295 30.46C23.1877 31.0333 22.8833 31.5511 22.4345 31.9236C21.9857 32.2961 21.4208 32.5 20.8375 32.5H19.1625C18.5792 32.5 18.0143 32.2961 17.5655 31.9236C17.1167 31.5511 16.8123 31.0333 16.705 30.46Z" fill="#254900"/>
</svg>
